<svg xmlns="http://www.w3.org/2000/svg" version="1.1" xmlns:xlink="http://www.w3.org/1999/xlink" xmlns:svgjs="http://svgjs.dev/svgjs" width="1500" height="1500" viewBox="0 0 1500 1500"><rect width="1500" height="1500" fill="#ffffff"></rect><g transform="matrix(0.6666666666666666,0,0,0.6666666666666666,249.39393939393938,438.5856950067477)"><svg viewBox="0 0 396 247" data-background-color="#f2f7fd" preserveAspectRatio="xMidYMid meet" height="935" width="1500" xmlns="http://www.w3.org/2000/svg" xmlns:xlink="http://www.w3.org/1999/xlink"><g id="tight-bounds" transform="matrix(1,0,0,1,0.2400000000000091,-0.09999999999999432)"><svg viewBox="0 0 395.52 247.2" height="247.2" width="395.52"><g><svg></svg></g><g><svg viewBox="0 0 395.52 247.2" height="247.2" width="395.52"><mask id="a2e340bf-090a-4c5d-bef8-e698280f862f"><rect width="395.52" height="247.2" fill="white"></rect><g transform="matrix(1,0,0,1,0,69.42355274299385)" id="clone"><svg viewBox="0 0 395.52 108.3528945140123" height="108.3528945140123" width="395.52"><g><svg viewBox="0 0 519.893344589692 142.42503217249177" height="108.3528945140123" width="395.52"><g transform="matrix(1,0,0,1,124.37334458969198,19.68392268085813)"><svg viewBox="0 0 395.52 103.0571868107755" height="103.0571868107755" width="395.52"><g id="SvgjsG1067"><svg viewBox="0 0 395.52 103.0571868107755" height="103.0571868107755" width="395.52" id="SvgjsSvg1066"><g><svg viewBox="0 0 395.52 64.70922448979591" height="64.70922448979591" width="395.52"><g transform="matrix(1,0,0,1,0,0)"><svg width="395.52" viewBox="-15.8 -39.5 294.98 49.1" height="64.70922448979591" data-palette-color="#d62d2d"><path d="M12.9-19.4L12.9-19.4-8.3-21.65 13.25-21.65Q13-20.65 12.9-19.4ZM-6.9-26.45L14.6-26.45 13.85-24.25-6.9-26.45ZM-7.85-16.85L12.9-16.85Q13-15.5 13.3-14.6L13.3-14.6-7.85-16.85ZM19.9-9.8L19.9-9.8-6.55-12.05 15-12.05Q16.65-10.45 19.9-9.8ZM-3.15-31.25L18.35-31.25Q17.2-30.5 16.15-29.2L16.15-29.2-3.15-31.25ZM10.55-5.05L-7.4-7.25 11.3-7.25 10.55-5.05ZM8.95-0.2L-8.25-2.4 9.7-2.4 8.95-0.2ZM10.65-0.55L13.45-8.8Q17.65-7.65 21.13-7.65 24.6-7.65 26.8-7.95L26.8-7.95 27.2-10.45 23.05-10.85Q18.3-11.3 16.32-13 14.35-14.7 14.35-17.8L14.35-17.8Q14.35-19.15 14.65-20.8L14.65-20.8Q15.8-27.2 18.85-29.6 21.9-32 28.23-32 34.55-32 39.4-30.75L39.4-30.75 36.8-22.75Q32.45-23.5 29.83-23.5 27.2-23.5 25.3-23.25L25.3-23.25 24.9-20.8 28.25-20.45Q33.35-19.9 35.5-18.03 37.65-16.15 37.65-13L37.65-13Q37.65-9.8 36.3-6.4L36.3-6.4Q35.55-4.65 34.73-3.48 33.9-2.3 32.63-1.48 31.35-0.65 30.3-0.23 29.25 0.2 27.6 0.4L27.6 0.4Q25.3 0.75 21.9 0.75L21.9 0.75Q15.7 0.75 10.65-0.55L10.65-0.55ZM58.85 0L50.1 0 54.7-26.45 63.5-26.45 58.85 0ZM48.85-2.4L48.45-0.15 27.25-2.4 48.85-2.4ZM50.55-12.05L50.15-9.8 28.95-12.05 50.55-12.05ZM51.4-16.85L51-14.6 29.8-16.85 51.4-16.85ZM52.25-21.65L51.85-19.4 30.65-21.65 52.25-21.65ZM53.05-26.45L52.7-24.2 31.5-26.45 53.05-26.45ZM49.7-7.25L49.3-5 28.1-7.25 49.7-7.25ZM79.15-26.45L90.4-26.45Q95.85-26.45 98.2-24.5 100.55-22.55 100.55-18.25L100.55-18.25Q100.55-16.2 100-13.2L100-13.2Q98.75-6.1 95.67-3.05 92.6 0 85.75 0L85.75 0 74.55 0 79.15-26.45ZM89.2-19.15L89.2-19.15 86.3-19.15 84.2-7.15 87.1-7.15Q88.55-7.15 89.32-7.53 90.1-7.9 90.3-9.05L90.3-9.05 91.75-17.3Q91.8-17.5 91.8-18.1L91.8-18.1Q91.8-19.15 89.2-19.15ZM73.3-2.4L72.9-0.15 51.7-2.4 73.3-2.4ZM75-12.05L74.6-9.8 53.4-12.05 75-12.05ZM75.85-16.85L75.45-14.6 54.25-16.85 75.85-16.85ZM76.7-21.65L76.3-19.4 55.1-21.65 76.7-21.65ZM77.5-26.45L77.15-24.2 55.95-26.45 77.5-26.45ZM74.15-7.25L73.75-5 52.55-7.25 74.15-7.25ZM117.89-26.45L129.14-26.45Q134.59-26.45 136.94-24.5 139.29-22.55 139.29-18.25L139.29-18.25Q139.29-16.2 138.74-13.2L138.74-13.2Q137.49-6.1 134.42-3.05 131.34 0 124.49 0L124.49 0 113.29 0 117.89-26.45ZM127.94-19.15L127.94-19.15 125.04-19.15 122.94-7.15 125.84-7.15Q127.29-7.15 128.07-7.53 128.84-7.9 129.04-9.05L129.04-9.05 130.49-17.3Q130.54-17.5 130.54-18.1L130.54-18.1Q130.54-19.15 127.94-19.15ZM112.04-2.4L111.64-0.15 90.44-2.4 112.04-2.4ZM113.74-12.05L113.34-9.8 92.14-12.05 113.74-12.05ZM114.59-16.85L114.19-14.6 92.99-16.85 114.59-16.85ZM115.44-21.65L115.04-19.4 93.84-21.65 115.44-21.65ZM116.24-26.45L115.89-24.2 94.69-26.45 116.24-26.45ZM112.89-7.25L112.49-5 91.29-7.25 112.89-7.25ZM160.79 0L152.04 0 156.64-26.45 165.44-26.45 160.79 0ZM150.79-2.4L150.39-0.15 129.19-2.4 150.79-2.4ZM152.49-12.05L152.09-9.8 130.89-12.05 152.49-12.05ZM153.34-16.85L152.94-14.6 131.74-16.85 153.34-16.85ZM154.19-21.65L153.79-19.4 132.59-21.65 154.19-21.65ZM154.99-26.45L154.64-24.2 133.44-26.45 154.99-26.45ZM151.64-7.25L151.24-5 130.04-7.25 151.64-7.25ZM176.39-7.75L176.39-7.75Q176.39-10 176.94-13.2L176.94-13.2Q178.19-20.4 181.31-23.68 184.44-26.95 191.09-26.95L191.09-26.95Q196.49-26.95 198.79-24.88 201.09-22.8 201.09-18.4L201.09-18.4Q201.09-9.65 196.89-4.75L196.89-4.75 199.09-3.15 196.09 2.1 188.29 0.5 188.59-1.3 184.84-0.05Q180.29-0.05 178.34-1.88 176.39-3.7 176.39-7.75ZM184.74-7L187.69-7Q189.14-7 189.86-7.35 190.59-7.7 190.84-8.9L190.84-8.9 192.74-19.35 189.69-19.35Q188.29-19.35 187.51-19 186.74-18.65 186.59-17.5L186.59-17.5 184.74-7ZM155.24-12.05L175.19-12.05Q174.99-10.5 174.94-9.95L174.94-9.95 155.24-12.05ZM156.14-16.85L176.14-16.85 175.69-14.75 156.14-16.85ZM155.44-7.25L174.89-7.25Q174.89-6.45 175.09-5.15L175.09-5.15 155.44-7.25ZM158.14-21.65L177.89-21.65Q177.29-20.35 177.04-19.65L177.04-19.65 158.14-21.65ZM159.79-2.4L175.94-2.4Q176.54-1.2 177.24-0.55L177.24-0.55 159.79-2.4ZM164.84-26.45L182.24-26.45Q181.04-25.75 180.19-24.8L180.19-24.8 164.84-26.45ZM213.59-12.05L213.19-9.8 191.99-12.05 213.59-12.05ZM214.44-16.85L214.04-14.6 192.84-16.85 214.44-16.85ZM215.29-21.65L214.89-19.4 193.69-21.65 215.29-21.65ZM216.09-26.45L215.74-24.2 194.54-26.45 216.09-26.45ZM191.84-7.25L212.99-7.25 212.99-6.25Q212.99-5.4 213.04-5L213.04-5 191.84-7.25ZM214.94-0.15L214.94-0.15 193.74-2.4 213.49-2.4Q214.04-1 214.94-0.15ZM222.69-7L225.19-7Q226.54-7 227.06-7.33 227.59-7.65 227.79-8.9L227.79-8.9 230.94-26.45 239.34-26.45 236.74-11.55Q235.54-4.55 232.86-1.98 230.19 0.6 223.74 0.6L223.74 0.6Q218.59 0.6 216.54-0.93 214.49-2.45 214.49-6.25L214.49-6.25Q214.49-8.35 215.04-11.55L215.04-11.55 217.69-26.45 226.09-26.45 222.69-7ZM268.08-15.55L267.23-10.75 259.78-10.75 259.18-7.35 268.43-7.35 267.13 0 249.48 0 254.08-26.45 271.68-26.45 269.33-18.95 261.18-18.95 260.58-15.55 268.08-15.55ZM248.23-2.4L247.83-0.15 226.63-2.4 248.23-2.4ZM249.93-12.05L249.53-9.8 228.33-12.05 249.93-12.05ZM250.78-16.85L250.38-14.6 229.18-16.85 250.78-16.85ZM251.63-21.65L251.23-19.4 230.03-21.65 251.63-21.65ZM252.43-26.45L252.08-24.2 230.88-26.45 252.43-26.45ZM249.08-7.25L248.68-5 227.48-7.25 249.08-7.25Z" opacity="1" transform="matrix(1,0,0,1,0,0)" fill="black" class="wordmark-text-0" id="SvgjsPath1065" stroke-width="14" stroke="black" stroke-linejoin="round"></path></svg></g></svg></g><g transform="matrix(1,0,0,1,0,71.40347905567347)"><svg viewBox="0 0 94.8074644897959 31.65370775510204" height="31.65370775510204" width="94.8074644897959"><g transform="matrix(1,0,0,1,0,0)"><svg width="94.8074644897959" viewBox="-4.5 -45 155.23 52.5" height="31.65370775510204" data-palette-color="#971717"><path d="M7.65 0L3 0 3-35 18-35Q19.45-35 20.5-33.95 21.55-32.9 21.55-31.4L21.55-31.4 21.55-20.65Q21.55-19.15 20.5-18.1 19.45-17.05 18-17.05L18-17.05 16.95-17.05 21.55 0 16.95 0 12.3-17.05 7.65-17.05 7.65 0ZM7.65-30.35L7.65-21.7 15.15-21.7Q15.85-21.7 16.4-22.23 16.95-22.75 16.95-23.5L16.95-23.5 16.95-28.55Q16.95-29.3 16.4-29.83 15.85-30.35 15.15-30.35L15.15-30.35 7.65-30.35ZM34.4 0L27.6 0Q26.05 0 25-1.07 23.95-2.15 23.95-3.65L23.95-3.65 23.95-21.35Q23.95-22.85 25-23.93 26.05-25 27.6-25L27.6-25 34.4-25Q35.9-25 36.95-23.93 38-22.85 38-21.35L38-21.35 38-3.65Q38-2.15 36.95-1.07 35.9 0 34.4 0L34.4 0ZM30.45-4.7L30.45-4.7 31.5-4.7Q32.25-4.7 32.8-5.23 33.35-5.75 33.35-6.5L33.35-6.5 33.35-18.5Q33.35-19.25 32.8-19.78 32.25-20.3 31.5-20.3L31.5-20.3 30.45-20.3Q29.7-20.3 29.17-19.78 28.65-19.25 28.65-18.5L28.65-18.5 28.65-6.5Q28.65-5.75 29.17-5.23 29.7-4.7 30.45-4.7ZM54.65 0L44.2 0Q42.7 0 41.62-1.05 40.55-2.1 40.55-3.65L40.55-3.65 40.55-11.2Q40.55-12.7 41.62-13.78 42.7-14.85 44.2-14.85L44.2-14.85 48.09-14.85Q48.9-14.85 49.42-15.38 49.95-15.9 49.95-16.65L49.95-16.65 49.95-18.5Q49.95-19.25 49.42-19.78 48.9-20.3 48.09-20.3L48.09-20.3 42.7-20.3 43.75-25 51-25Q52.5-25 53.57-23.93 54.65-22.85 54.65-21.35L54.65-21.35 54.65 0ZM47.05-4.7L47.05-4.7 49.95-4.7 49.95-10.15 47.05-10.15Q46.3-10.15 45.77-9.63 45.25-9.1 45.25-8.35L45.25-8.35 45.25-6.5Q45.25-5.75 45.77-5.23 46.3-4.7 47.05-4.7ZM72.24 0L61.79 0Q60.24 0 59.19-1.05 58.14-2.1 58.14-3.65L58.14-3.65 58.14-21.35Q58.14-22.9 59.19-23.95 60.24-25 61.79-25L61.79-25 67.54-25 67.54-36.4 72.24-37.5 72.24 0ZM64.64-4.7L64.64-4.7 67.54-4.7 67.54-20.3 64.64-20.3Q63.94-20.3 63.39-19.8 62.84-19.3 62.84-18.5L62.84-18.5 62.84-6.5Q62.84-5.8 63.39-5.25 63.94-4.7 64.64-4.7ZM100.94 0L84.34 0 84.34-35 88.99-35 88.99-4.65 100.94-4.65 100.94 0ZM108.54-32.8L103.84-31.7 103.84-36.4 108.54-37.5 108.54-32.8ZM108.64 0L103.94 0 103.94-23.9 108.64-25 108.64 0ZM116.53 0L111.83 0 111.83-25 122.28-25Q123.73-25 124.83-23.95 125.93-22.9 125.93-21.4L125.93-21.4 125.93 0 121.23 0 121.23-18.5Q121.23-19.3 120.68-19.8 120.13-20.3 119.43-20.3L119.43-20.3 116.53-20.3 116.53 0ZM143.23 0L132.78 0Q131.28 0 130.2-1.07 129.13-2.15 129.13-3.65L129.13-3.65 129.13-21.4Q129.13-22.9 130.2-23.95 131.28-25 132.78-25L132.78-25 139.58-25Q141.13-25 142.18-23.95 143.23-22.9 143.23-21.4L143.23-21.4 143.23-13.8Q143.23-12.3 142.18-11.23 141.13-10.15 139.58-10.15L139.58-10.15 133.83-10.15 133.83-6.5Q133.83-5.75 134.35-5.23 134.88-4.7 135.68-4.7L135.68-4.7 142.18-4.7 143.23 0ZM133.83-18.5L133.83-14.85 136.73-14.85Q137.48-14.85 138-15.38 138.53-15.9 138.53-16.65L138.53-16.65 138.53-18.5Q138.53-19.25 138-19.78 137.48-20.3 136.73-20.3L136.73-20.3 135.68-20.3Q134.88-20.3 134.35-19.78 133.83-19.25 133.83-18.5L133.83-18.5Z" opacity="1" transform="matrix(1,0,0,1,0,0)" fill="black" class="slogan-text-1" id="SvgjsPath1064" stroke-width="14" stroke="black" stroke-linejoin="round"></path></svg></g></svg></g></svg></g></svg></g><g><svg viewBox="0 0 117.67909002381442 142.42503217249177" height="142.42503217249177" width="117.67909002381442"><g><svg xmlns="http://www.w3.org/2000/svg" xmlns:xlink="http://www.w3.org/1999/xlink" version="1.1" x="0" y="0" viewBox="12.673 6.355 72.973 88.318" enable-background="new 0 0 100 100" xml:space="preserve" height="142.42503217249177" width="117.67909002381442" class="icon-icon-0" data-fill-palette-color="accent" id="SvgjsSvg1063"><g fill="black" stroke-width="14" stroke="black" stroke-linejoin="round"><polygon points="12.673,76.875 30.456,76.875 30.456,94.657 28.003,94.657 28.003,79.328 12.673,79.328  " fill="black" stroke-width="14" stroke="black" stroke-linejoin="round"></polygon><polygon points="28.003,6.355 30.456,6.355 30.456,24.138 12.673,24.138 12.673,21.685 28.003,21.685  " fill="black" stroke-width="14" stroke="black" stroke-linejoin="round"></polygon><polygon points="83.192,6.355 85.646,6.355 85.646,94.657 83.192,94.673  " fill="black" stroke-width="14" stroke="black" stroke-linejoin="round"></polygon><path d="M12.673 28.43h22.074V6.355h44.152v88.302H34.747V72.582H12.673V28.43zM12.673 51.732h22.074V49.28H12.673V51.732zM55.598 28.43h2.452V6.355h-2.452V28.43zM55.598 94.657h2.452V72.582h-2.452V94.657z" fill="black" stroke-width="14" stroke="black" stroke-linejoin="round"></path></g></svg></g></svg></g></svg></g></svg></g></mask><g mask="url(#a2e340bf-090a-4c5d-bef8-e698280f862f)"><g><path transform="translate(80.38718,241.53893) scale(7.54809,7.54809)" d="M12.9-19.4v0l-21.2-2.25h21.55c-0.167 0.667-0.283 1.417-0.35 2.25zM-6.9-26.45h21.5l-0.75 2.2zM-7.85-16.85h20.75c0.067 0.9 0.2 1.65 0.4 2.25v0zM19.9-9.8v0l-26.45-2.25h21.55c1.1 1.067 2.733 1.817 4.9 2.25zM-3.15-31.25h21.5c-0.767 0.5-1.5 1.183-2.2 2.05v0zM10.55-5.05l-17.95-2.2h18.7zM8.95-0.2l-17.2-2.2h17.95zM10.65-0.55l2.8-8.25c2.8 0.767 5.36 1.15 7.68 1.15 2.313 0 4.203-0.1 5.67-0.3v0l0.4-2.5-4.15-0.4c-3.167-0.3-5.41-1.017-6.73-2.15-1.313-1.133-1.97-2.733-1.97-4.8v0c0-0.9 0.1-1.9 0.3-3v0c0.767-4.267 2.167-7.2 4.2-8.8 2.033-1.6 5.16-2.4 9.38-2.4 4.213 0 7.937 0.417 11.17 1.25v0l-2.6 8c-2.9-0.5-5.223-0.75-6.97-0.75-1.753 0-3.263 0.083-4.53 0.25v0l-0.4 2.45 3.35 0.35c3.4 0.367 5.817 1.173 7.25 2.42 1.433 1.253 2.15 2.93 2.15 5.03v0c0 2.133-0.45 4.333-1.35 6.6v0c-0.5 1.167-1.023 2.14-1.57 2.92-0.553 0.787-1.253 1.453-2.1 2-0.853 0.553-1.63 0.97-2.33 1.25-0.7 0.287-1.6 0.497-2.7 0.63v0c-1.533 0.233-3.433 0.35-5.7 0.35v0c-4.133 0-7.883-0.433-11.25-1.3z" fill="#000000" fill-rule="nonzero" stroke="none" stroke-width="1" stroke-linecap="butt" stroke-linejoin="miter" stroke-miterlimit="10" stroke-dasharray="" stroke-dashoffset="0" font-family="none" font-weight="none" font-size="none" text-anchor="none" style="mix-blend-mode: normal" data-fill-palette-color="tertiary"></path></g></g><g transform="matrix(1,0,0,1,0,69.42355274299385)"><svg viewBox="0 0 395.52 108.3528945140123" height="108.3528945140123" width="395.52"><g><svg viewBox="0 0 519.893344589692 142.42503217249177" height="108.3528945140123" width="395.52"><g transform="matrix(1,0,0,1,124.37334458969198,19.68392268085813)"><svg viewBox="0 0 395.52 103.0571868107755" height="103.0571868107755" width="395.52"><g id="textblocktransform"><svg viewBox="0 0 395.52 103.0571868107755" height="103.0571868107755" width="395.52" id="textblock"><g><svg viewBox="0 0 395.52 64.70922448979591" height="64.70922448979591" width="395.52"><g transform="matrix(1,0,0,1,0,0)"><svg width="395.52" viewBox="-15.8 -39.5 294.98 49.1" height="64.70922448979591" data-palette-color="#d62d2d"><path d="M12.9-19.4L12.9-19.4-8.3-21.65 13.25-21.65Q13-20.65 12.9-19.4ZM-6.9-26.45L14.6-26.45 13.85-24.25-6.9-26.45ZM-7.85-16.85L12.9-16.85Q13-15.5 13.3-14.6L13.3-14.6-7.85-16.85ZM19.9-9.8L19.9-9.8-6.55-12.05 15-12.05Q16.65-10.45 19.9-9.8ZM-3.15-31.25L18.35-31.25Q17.2-30.5 16.15-29.2L16.15-29.2-3.15-31.25ZM10.55-5.05L-7.4-7.25 11.3-7.25 10.55-5.05ZM8.95-0.2L-8.25-2.4 9.7-2.4 8.95-0.2ZM10.65-0.55L13.45-8.8Q17.65-7.65 21.13-7.65 24.6-7.65 26.8-7.95L26.8-7.95 27.2-10.45 23.05-10.85Q18.3-11.3 16.32-13 14.35-14.7 14.35-17.8L14.35-17.8Q14.35-19.15 14.65-20.8L14.65-20.8Q15.8-27.2 18.85-29.6 21.9-32 28.23-32 34.55-32 39.4-30.75L39.4-30.75 36.8-22.75Q32.45-23.5 29.83-23.5 27.2-23.5 25.3-23.25L25.3-23.25 24.9-20.8 28.25-20.45Q33.35-19.9 35.5-18.03 37.65-16.15 37.65-13L37.65-13Q37.65-9.8 36.3-6.4L36.3-6.4Q35.55-4.65 34.73-3.48 33.9-2.3 32.63-1.48 31.35-0.65 30.3-0.23 29.25 0.2 27.6 0.4L27.6 0.4Q25.3 0.75 21.9 0.75L21.9 0.75Q15.7 0.75 10.65-0.55L10.65-0.55ZM58.85 0L50.1 0 54.7-26.45 63.5-26.45 58.85 0ZM48.85-2.4L48.45-0.15 27.25-2.4 48.85-2.4ZM50.55-12.05L50.15-9.8 28.95-12.05 50.55-12.05ZM51.4-16.85L51-14.6 29.8-16.85 51.4-16.85ZM52.25-21.65L51.85-19.4 30.65-21.65 52.25-21.65ZM53.05-26.45L52.7-24.2 31.5-26.45 53.05-26.45ZM49.7-7.25L49.3-5 28.1-7.25 49.7-7.25ZM79.15-26.45L90.4-26.45Q95.85-26.45 98.2-24.5 100.55-22.55 100.55-18.25L100.55-18.25Q100.55-16.2 100-13.2L100-13.2Q98.75-6.1 95.67-3.05 92.6 0 85.75 0L85.75 0 74.55 0 79.15-26.45ZM89.2-19.15L89.2-19.15 86.3-19.15 84.2-7.15 87.1-7.15Q88.55-7.15 89.32-7.53 90.1-7.9 90.3-9.05L90.3-9.05 91.75-17.3Q91.8-17.5 91.8-18.1L91.8-18.1Q91.8-19.15 89.2-19.15ZM73.3-2.4L72.9-0.15 51.7-2.4 73.3-2.4ZM75-12.05L74.6-9.8 53.4-12.05 75-12.05ZM75.85-16.85L75.45-14.6 54.25-16.85 75.85-16.85ZM76.7-21.65L76.3-19.4 55.1-21.65 76.7-21.65ZM77.5-26.45L77.15-24.2 55.95-26.45 77.5-26.45ZM74.15-7.25L73.75-5 52.55-7.25 74.15-7.25ZM117.89-26.45L129.14-26.45Q134.59-26.45 136.94-24.5 139.29-22.55 139.29-18.25L139.29-18.25Q139.29-16.2 138.74-13.2L138.74-13.2Q137.49-6.1 134.42-3.05 131.34 0 124.49 0L124.49 0 113.29 0 117.89-26.45ZM127.94-19.15L127.94-19.15 125.04-19.15 122.94-7.15 125.84-7.15Q127.29-7.15 128.07-7.53 128.84-7.9 129.04-9.05L129.04-9.05 130.49-17.3Q130.54-17.5 130.54-18.1L130.54-18.1Q130.54-19.15 127.94-19.15ZM112.04-2.4L111.64-0.15 90.44-2.4 112.04-2.4ZM113.74-12.05L113.34-9.8 92.14-12.05 113.74-12.05ZM114.59-16.85L114.19-14.6 92.99-16.85 114.59-16.85ZM115.44-21.65L115.04-19.4 93.84-21.65 115.44-21.65ZM116.24-26.45L115.89-24.2 94.69-26.45 116.24-26.45ZM112.89-7.25L112.49-5 91.29-7.25 112.89-7.25ZM160.79 0L152.04 0 156.64-26.45 165.44-26.45 160.79 0ZM150.79-2.4L150.39-0.15 129.19-2.4 150.79-2.4ZM152.49-12.05L152.09-9.8 130.89-12.05 152.49-12.05ZM153.34-16.85L152.94-14.6 131.74-16.85 153.34-16.85ZM154.19-21.65L153.79-19.4 132.59-21.65 154.19-21.65ZM154.99-26.45L154.64-24.2 133.44-26.45 154.99-26.45ZM151.64-7.25L151.24-5 130.04-7.25 151.64-7.25ZM176.39-7.75L176.39-7.75Q176.39-10 176.94-13.2L176.94-13.2Q178.19-20.4 181.31-23.68 184.44-26.95 191.09-26.95L191.09-26.95Q196.49-26.95 198.79-24.88 201.09-22.8 201.09-18.4L201.09-18.4Q201.09-9.65 196.89-4.75L196.89-4.75 199.09-3.15 196.09 2.1 188.29 0.5 188.59-1.3 184.84-0.05Q180.29-0.05 178.34-1.88 176.39-3.7 176.39-7.75ZM184.74-7L187.69-7Q189.14-7 189.86-7.35 190.59-7.7 190.84-8.9L190.84-8.9 192.74-19.35 189.69-19.35Q188.29-19.35 187.51-19 186.74-18.65 186.59-17.5L186.59-17.5 184.74-7ZM155.24-12.05L175.19-12.05Q174.99-10.5 174.94-9.95L174.94-9.95 155.24-12.05ZM156.14-16.85L176.14-16.85 175.69-14.75 156.14-16.85ZM155.44-7.25L174.89-7.25Q174.89-6.45 175.09-5.15L175.09-5.15 155.44-7.25ZM158.14-21.65L177.89-21.65Q177.29-20.35 177.04-19.65L177.04-19.65 158.14-21.65ZM159.79-2.4L175.94-2.4Q176.54-1.2 177.24-0.55L177.24-0.55 159.79-2.4ZM164.84-26.45L182.24-26.45Q181.04-25.75 180.19-24.8L180.19-24.8 164.84-26.45ZM213.59-12.05L213.19-9.8 191.99-12.05 213.59-12.05ZM214.44-16.85L214.04-14.6 192.84-16.85 214.44-16.85ZM215.29-21.65L214.89-19.4 193.69-21.65 215.29-21.65ZM216.09-26.45L215.74-24.2 194.54-26.45 216.09-26.45ZM191.84-7.25L212.99-7.25 212.99-6.25Q212.99-5.4 213.04-5L213.04-5 191.84-7.25ZM214.94-0.15L214.94-0.15 193.74-2.4 213.49-2.4Q214.04-1 214.94-0.15ZM222.69-7L225.19-7Q226.54-7 227.06-7.33 227.59-7.65 227.79-8.9L227.79-8.9 230.94-26.45 239.34-26.45 236.74-11.55Q235.54-4.55 232.86-1.98 230.19 0.6 223.74 0.6L223.74 0.6Q218.59 0.6 216.54-0.93 214.49-2.45 214.49-6.25L214.49-6.25Q214.49-8.35 215.04-11.55L215.04-11.55 217.69-26.45 226.09-26.45 222.69-7ZM268.08-15.55L267.23-10.75 259.78-10.75 259.18-7.35 268.43-7.35 267.13 0 249.48 0 254.08-26.45 271.68-26.45 269.33-18.95 261.18-18.95 260.58-15.55 268.08-15.55ZM248.23-2.4L247.83-0.15 226.63-2.4 248.23-2.4ZM249.93-12.05L249.53-9.8 228.33-12.05 249.93-12.05ZM250.78-16.85L250.38-14.6 229.18-16.85 250.78-16.85ZM251.63-21.65L251.23-19.4 230.03-21.65 251.63-21.65ZM252.43-26.45L252.08-24.2 230.88-26.45 252.43-26.45ZM249.08-7.25L248.68-5 227.48-7.25 249.08-7.25Z" opacity="1" transform="matrix(1,0,0,1,0,0)" fill="#000000" class="wordmark-text-0" data-fill-palette-color="primary" id="text-0"></path></svg></g></svg></g><g transform="matrix(1,0,0,1,0,71.40347905567347)"><svg viewBox="0 0 94.8074644897959 31.65370775510204" height="31.65370775510204" width="94.8074644897959"><g transform="matrix(1,0,0,1,0,0)"><svg width="94.8074644897959" viewBox="-4.5 -45 155.23 52.5" height="31.65370775510204" data-palette-color="#971717"><path d="M7.65 0L3 0 3-35 18-35Q19.45-35 20.5-33.95 21.55-32.9 21.55-31.4L21.55-31.4 21.55-20.65Q21.55-19.15 20.5-18.1 19.45-17.05 18-17.05L18-17.05 16.95-17.05 21.55 0 16.95 0 12.3-17.05 7.65-17.05 7.65 0ZM7.65-30.35L7.65-21.7 15.15-21.7Q15.85-21.7 16.4-22.23 16.95-22.75 16.95-23.5L16.95-23.5 16.95-28.55Q16.95-29.3 16.4-29.83 15.85-30.35 15.15-30.35L15.15-30.35 7.65-30.35ZM34.4 0L27.6 0Q26.05 0 25-1.07 23.95-2.15 23.95-3.65L23.95-3.65 23.95-21.35Q23.95-22.85 25-23.93 26.05-25 27.6-25L27.6-25 34.4-25Q35.9-25 36.95-23.93 38-22.85 38-21.35L38-21.35 38-3.65Q38-2.15 36.95-1.07 35.9 0 34.4 0L34.4 0ZM30.45-4.7L30.45-4.7 31.5-4.7Q32.25-4.7 32.8-5.23 33.35-5.75 33.35-6.5L33.35-6.5 33.35-18.5Q33.35-19.25 32.8-19.78 32.25-20.3 31.5-20.3L31.5-20.3 30.45-20.3Q29.7-20.3 29.17-19.78 28.65-19.25 28.65-18.5L28.65-18.5 28.65-6.5Q28.65-5.75 29.17-5.23 29.7-4.7 30.45-4.7ZM54.65 0L44.2 0Q42.7 0 41.62-1.05 40.55-2.1 40.55-3.65L40.55-3.65 40.55-11.2Q40.55-12.7 41.62-13.78 42.7-14.85 44.2-14.85L44.2-14.85 48.09-14.85Q48.9-14.85 49.42-15.38 49.95-15.9 49.95-16.65L49.95-16.65 49.95-18.5Q49.95-19.25 49.42-19.78 48.9-20.3 48.09-20.3L48.09-20.3 42.7-20.3 43.75-25 51-25Q52.5-25 53.57-23.93 54.65-22.85 54.65-21.35L54.65-21.35 54.65 0ZM47.05-4.7L47.05-4.7 49.95-4.7 49.95-10.15 47.05-10.15Q46.3-10.15 45.77-9.63 45.25-9.1 45.25-8.35L45.25-8.35 45.25-6.5Q45.25-5.75 45.77-5.23 46.3-4.7 47.05-4.7ZM72.24 0L61.79 0Q60.24 0 59.19-1.05 58.14-2.1 58.14-3.65L58.14-3.65 58.14-21.35Q58.14-22.9 59.19-23.95 60.24-25 61.79-25L61.79-25 67.54-25 67.54-36.4 72.24-37.5 72.24 0ZM64.64-4.7L64.64-4.7 67.54-4.7 67.54-20.3 64.64-20.3Q63.94-20.3 63.39-19.8 62.84-19.3 62.84-18.5L62.84-18.5 62.84-6.5Q62.84-5.8 63.39-5.25 63.94-4.7 64.64-4.7ZM100.94 0L84.34 0 84.34-35 88.99-35 88.99-4.65 100.94-4.65 100.94 0ZM108.54-32.8L103.84-31.7 103.84-36.4 108.54-37.5 108.54-32.8ZM108.64 0L103.94 0 103.94-23.9 108.64-25 108.64 0ZM116.53 0L111.83 0 111.83-25 122.28-25Q123.73-25 124.83-23.95 125.93-22.9 125.93-21.4L125.93-21.4 125.93 0 121.23 0 121.23-18.5Q121.23-19.3 120.68-19.8 120.13-20.3 119.43-20.3L119.43-20.3 116.53-20.3 116.53 0ZM143.23 0L132.78 0Q131.28 0 130.2-1.07 129.13-2.15 129.13-3.65L129.13-3.65 129.13-21.4Q129.13-22.9 130.2-23.95 131.28-25 132.78-25L132.78-25 139.58-25Q141.13-25 142.18-23.95 143.23-22.9 143.23-21.4L143.23-21.4 143.23-13.8Q143.23-12.3 142.18-11.23 141.13-10.15 139.58-10.15L139.58-10.15 133.83-10.15 133.83-6.5Q133.83-5.75 134.35-5.23 134.88-4.7 135.68-4.7L135.68-4.7 142.18-4.7 143.23 0ZM133.83-18.5L133.83-14.85 136.73-14.85Q137.48-14.85 138-15.38 138.53-15.9 138.53-16.65L138.53-16.65 138.53-18.5Q138.53-19.25 138-19.78 137.48-20.3 136.73-20.3L136.73-20.3 135.68-20.3Q134.88-20.3 134.35-19.78 133.83-19.25 133.83-18.5L133.83-18.5Z" opacity="1" transform="matrix(1,0,0,1,0,0)" fill="#000000" class="slogan-text-1" data-fill-palette-color="secondary" id="text-1"></path></svg></g></svg></g></svg></g></svg></g><g><svg viewBox="0 0 117.67909002381442 142.42503217249177" height="142.42503217249177" width="117.67909002381442"><g><svg xmlns="http://www.w3.org/2000/svg" xmlns:xlink="http://www.w3.org/1999/xlink" version="1.1" x="0" y="0" viewBox="12.673 6.355 72.973 88.318" enable-background="new 0 0 100 100" xml:space="preserve" height="142.42503217249177" width="117.67909002381442" class="icon-icon-0" data-fill-palette-color="accent" id="icon-0"><g fill="#ffffff" data-fill-palette-color="accent"><polygon points="12.673,76.875 30.456,76.875 30.456,94.657 28.003,94.657 28.003,79.328 12.673,79.328  " fill="#000000" data-fill-palette-color="accent"></polygon><polygon points="28.003,6.355 30.456,6.355 30.456,24.138 12.673,24.138 12.673,21.685 28.003,21.685  " fill="#000000" data-fill-palette-color="accent"></polygon><polygon points="83.192,6.355 85.646,6.355 85.646,94.657 83.192,94.673  " fill="#000000" data-fill-palette-color="accent"></polygon><path d="M12.673 28.43h22.074V6.355h44.152v88.302H34.747V72.582H12.673V28.43zM12.673 51.732h22.074V49.28H12.673V51.732zM55.598 28.43h2.452V6.355h-2.452V28.43zM55.598 94.657h2.452V72.582h-2.452V94.657z" fill="#000000" data-fill-palette-color="accent"></path></g></svg></g></svg></g></svg></g></svg></g></svg></g><defs></defs></svg><rect width="395.52" height="247.2" fill="none" stroke="none" visibility="hidden"></rect></g></svg></g></svg>